<mxfile host="app.diagrams.net" agent="Mozilla/5.0 (Windows NT 10.0; Win64; x64) AppleWebKit/537.36 (KHTML, like Gecko) Chrome/129.0.0.0 Safari/537.36" version="24.7.16">
  <diagram name="Page-1" id="lmnzhwiZiXyU43awiwLW">
    <mxGraphModel dx="4200" dy="2403" grid="1" gridSize="10" guides="1" tooltips="1" connect="1" arrows="1" fold="1" page="1" pageScale="1" pageWidth="850" pageHeight="1100" math="0" shadow="0">
      <root>
        <mxCell id="0" />
        <mxCell id="1" parent="0" />
        <mxCell id="OFP0CZF55RK4qGKGHeyL-8" value="" style="edgeStyle=orthogonalEdgeStyle;rounded=0;orthogonalLoop=1;jettySize=auto;html=1;" edge="1" parent="1" source="OFP0CZF55RK4qGKGHeyL-1" target="OFP0CZF55RK4qGKGHeyL-5">
          <mxGeometry relative="1" as="geometry" />
        </mxCell>
        <mxCell id="OFP0CZF55RK4qGKGHeyL-1" value="mulai" style="strokeWidth=2;html=1;shape=mxgraph.flowchart.start_1;whiteSpace=wrap;" vertex="1" parent="1">
          <mxGeometry x="370" y="20" width="100" height="60" as="geometry" />
        </mxCell>
        <mxCell id="OFP0CZF55RK4qGKGHeyL-9" value="" style="edgeStyle=orthogonalEdgeStyle;rounded=0;orthogonalLoop=1;jettySize=auto;html=1;" edge="1" parent="1" source="OFP0CZF55RK4qGKGHeyL-5" target="OFP0CZF55RK4qGKGHeyL-6">
          <mxGeometry relative="1" as="geometry" />
        </mxCell>
        <mxCell id="OFP0CZF55RK4qGKGHeyL-5" value="input username" style="shape=parallelogram;html=1;strokeWidth=2;perimeter=parallelogramPerimeter;whiteSpace=wrap;rounded=1;arcSize=12;size=0.23;" vertex="1" parent="1">
          <mxGeometry x="350" y="130" width="140" height="60" as="geometry" />
        </mxCell>
        <mxCell id="OFP0CZF55RK4qGKGHeyL-13" value="" style="edgeStyle=orthogonalEdgeStyle;rounded=0;orthogonalLoop=1;jettySize=auto;html=1;" edge="1" parent="1" source="OFP0CZF55RK4qGKGHeyL-6" target="OFP0CZF55RK4qGKGHeyL-10">
          <mxGeometry relative="1" as="geometry" />
        </mxCell>
        <mxCell id="OFP0CZF55RK4qGKGHeyL-6" value="input password" style="shape=parallelogram;html=1;strokeWidth=2;perimeter=parallelogramPerimeter;whiteSpace=wrap;rounded=1;arcSize=12;size=0.23;" vertex="1" parent="1">
          <mxGeometry x="340" y="250" width="160" height="50" as="geometry" />
        </mxCell>
        <mxCell id="OFP0CZF55RK4qGKGHeyL-14" value="" style="edgeStyle=orthogonalEdgeStyle;rounded=0;orthogonalLoop=1;jettySize=auto;html=1;" edge="1" parent="1" source="OFP0CZF55RK4qGKGHeyL-10" target="OFP0CZF55RK4qGKGHeyL-12">
          <mxGeometry relative="1" as="geometry" />
        </mxCell>
        <mxCell id="OFP0CZF55RK4qGKGHeyL-10" value="input username" style="shape=parallelogram;html=1;strokeWidth=2;perimeter=parallelogramPerimeter;whiteSpace=wrap;rounded=1;arcSize=12;size=0.23;" vertex="1" parent="1">
          <mxGeometry x="350" y="380" width="140" height="60" as="geometry" />
        </mxCell>
        <mxCell id="OFP0CZF55RK4qGKGHeyL-25" value="" style="edgeStyle=orthogonalEdgeStyle;rounded=0;orthogonalLoop=1;jettySize=auto;html=1;" edge="1" parent="1" source="OFP0CZF55RK4qGKGHeyL-12" target="OFP0CZF55RK4qGKGHeyL-24">
          <mxGeometry relative="1" as="geometry" />
        </mxCell>
        <mxCell id="OFP0CZF55RK4qGKGHeyL-12" value="input password" style="shape=parallelogram;html=1;strokeWidth=2;perimeter=parallelogramPerimeter;whiteSpace=wrap;rounded=1;arcSize=12;size=0.23;" vertex="1" parent="1">
          <mxGeometry x="340" y="500" width="160" height="50" as="geometry" />
        </mxCell>
        <mxCell id="OFP0CZF55RK4qGKGHeyL-17" style="edgeStyle=orthogonalEdgeStyle;rounded=0;orthogonalLoop=1;jettySize=auto;html=1;entryX=1;entryY=0.5;entryDx=0;entryDy=0;" edge="1" parent="1" source="OFP0CZF55RK4qGKGHeyL-15" target="OFP0CZF55RK4qGKGHeyL-5">
          <mxGeometry relative="1" as="geometry" />
        </mxCell>
        <mxCell id="OFP0CZF55RK4qGKGHeyL-19" style="edgeStyle=orthogonalEdgeStyle;rounded=0;orthogonalLoop=1;jettySize=auto;html=1;entryX=1;entryY=0.5;entryDx=0;entryDy=0;" edge="1" parent="1" source="OFP0CZF55RK4qGKGHeyL-15" target="OFP0CZF55RK4qGKGHeyL-6">
          <mxGeometry relative="1" as="geometry">
            <Array as="points">
              <mxPoint x="520" y="205" />
              <mxPoint x="520" y="275" />
            </Array>
          </mxGeometry>
        </mxCell>
        <mxCell id="OFP0CZF55RK4qGKGHeyL-15" value="regist" style="text;strokeColor=#6c8ebf;align=center;fillColor=#dae8fc;html=1;verticalAlign=middle;whiteSpace=wrap;rounded=0;" vertex="1" parent="1">
          <mxGeometry x="550" y="190" width="60" height="30" as="geometry" />
        </mxCell>
        <mxCell id="OFP0CZF55RK4qGKGHeyL-21" style="edgeStyle=orthogonalEdgeStyle;rounded=0;orthogonalLoop=1;jettySize=auto;html=1;entryX=1;entryY=0.5;entryDx=0;entryDy=0;" edge="1" parent="1" source="OFP0CZF55RK4qGKGHeyL-20" target="OFP0CZF55RK4qGKGHeyL-10">
          <mxGeometry relative="1" as="geometry" />
        </mxCell>
        <mxCell id="OFP0CZF55RK4qGKGHeyL-23" style="edgeStyle=orthogonalEdgeStyle;rounded=0;orthogonalLoop=1;jettySize=auto;html=1;entryX=1;entryY=0.5;entryDx=0;entryDy=0;" edge="1" parent="1" source="OFP0CZF55RK4qGKGHeyL-20" target="OFP0CZF55RK4qGKGHeyL-12">
          <mxGeometry relative="1" as="geometry">
            <Array as="points">
              <mxPoint x="520" y="455" />
              <mxPoint x="520" y="525" />
            </Array>
          </mxGeometry>
        </mxCell>
        <mxCell id="OFP0CZF55RK4qGKGHeyL-20" value="login" style="text;strokeColor=#82b366;align=center;fillColor=#d5e8d4;html=1;verticalAlign=middle;whiteSpace=wrap;rounded=0;" vertex="1" parent="1">
          <mxGeometry x="550" y="440" width="60" height="30" as="geometry" />
        </mxCell>
        <mxCell id="OFP0CZF55RK4qGKGHeyL-29" style="edgeStyle=orthogonalEdgeStyle;rounded=0;orthogonalLoop=1;jettySize=auto;html=1;entryX=1;entryY=0.75;entryDx=0;entryDy=0;" edge="1" parent="1" source="OFP0CZF55RK4qGKGHeyL-24" target="OFP0CZF55RK4qGKGHeyL-26">
          <mxGeometry relative="1" as="geometry">
            <Array as="points">
              <mxPoint x="420" y="810" />
            </Array>
          </mxGeometry>
        </mxCell>
        <mxCell id="OFP0CZF55RK4qGKGHeyL-30" value="TIDAK" style="edgeLabel;html=1;align=center;verticalAlign=middle;resizable=0;points=[];" vertex="1" connectable="0" parent="OFP0CZF55RK4qGKGHeyL-29">
          <mxGeometry x="0.4497" relative="1" as="geometry">
            <mxPoint as="offset" />
          </mxGeometry>
        </mxCell>
        <mxCell id="OFP0CZF55RK4qGKGHeyL-35" style="edgeStyle=orthogonalEdgeStyle;rounded=0;orthogonalLoop=1;jettySize=auto;html=1;entryX=0;entryY=0.5;entryDx=0;entryDy=0;" edge="1" parent="1" source="OFP0CZF55RK4qGKGHeyL-24" target="OFP0CZF55RK4qGKGHeyL-27">
          <mxGeometry relative="1" as="geometry">
            <Array as="points">
              <mxPoint x="420" y="810" />
            </Array>
          </mxGeometry>
        </mxCell>
        <mxCell id="OFP0CZF55RK4qGKGHeyL-36" value="IYA" style="edgeLabel;html=1;align=center;verticalAlign=middle;resizable=0;points=[];" vertex="1" connectable="0" parent="OFP0CZF55RK4qGKGHeyL-35">
          <mxGeometry x="0.3101" y="5" relative="1" as="geometry">
            <mxPoint as="offset" />
          </mxGeometry>
        </mxCell>
        <mxCell id="OFP0CZF55RK4qGKGHeyL-24" value="apakah username dan password benar" style="strokeWidth=2;html=1;shape=mxgraph.flowchart.decision;whiteSpace=wrap;" vertex="1" parent="1">
          <mxGeometry x="340" y="600" width="160" height="140" as="geometry" />
        </mxCell>
        <mxCell id="OFP0CZF55RK4qGKGHeyL-28" style="edgeStyle=orthogonalEdgeStyle;rounded=0;orthogonalLoop=1;jettySize=auto;html=1;entryX=0;entryY=0.5;entryDx=0;entryDy=0;" edge="1" parent="1" source="OFP0CZF55RK4qGKGHeyL-26" target="OFP0CZF55RK4qGKGHeyL-10">
          <mxGeometry relative="1" as="geometry">
            <Array as="points">
              <mxPoint x="255" y="410" />
            </Array>
          </mxGeometry>
        </mxCell>
        <mxCell id="OFP0CZF55RK4qGKGHeyL-26" value="output anda gagal login" style="shape=parallelogram;html=1;strokeWidth=2;perimeter=parallelogramPerimeter;whiteSpace=wrap;rounded=1;arcSize=12;size=0.23;" vertex="1" parent="1">
          <mxGeometry x="160" y="770" width="190" height="60" as="geometry" />
        </mxCell>
        <mxCell id="OFP0CZF55RK4qGKGHeyL-40" value="" style="edgeStyle=orthogonalEdgeStyle;rounded=0;orthogonalLoop=1;jettySize=auto;html=1;" edge="1" parent="1" source="OFP0CZF55RK4qGKGHeyL-27" target="OFP0CZF55RK4qGKGHeyL-39">
          <mxGeometry relative="1" as="geometry" />
        </mxCell>
        <mxCell id="OFP0CZF55RK4qGKGHeyL-27" value="output anda berhasil login" style="shape=parallelogram;html=1;strokeWidth=2;perimeter=parallelogramPerimeter;whiteSpace=wrap;rounded=1;arcSize=12;size=0.23;" vertex="1" parent="1">
          <mxGeometry x="510" y="780" width="230" height="60" as="geometry" />
        </mxCell>
        <mxCell id="OFP0CZF55RK4qGKGHeyL-42" value="" style="edgeStyle=orthogonalEdgeStyle;rounded=0;orthogonalLoop=1;jettySize=auto;html=1;" edge="1" parent="1" target="OFP0CZF55RK4qGKGHeyL-38">
          <mxGeometry relative="1" as="geometry">
            <mxPoint x="620" y="1070" as="sourcePoint" />
            <Array as="points">
              <mxPoint x="621" y="1070" />
            </Array>
          </mxGeometry>
        </mxCell>
        <mxCell id="OFP0CZF55RK4qGKGHeyL-46" value="" style="edgeStyle=orthogonalEdgeStyle;rounded=0;orthogonalLoop=1;jettySize=auto;html=1;" edge="1" parent="1" source="OFP0CZF55RK4qGKGHeyL-38" target="OFP0CZF55RK4qGKGHeyL-45">
          <mxGeometry relative="1" as="geometry" />
        </mxCell>
        <mxCell id="OFP0CZF55RK4qGKGHeyL-38" value="input&lt;div&gt;&amp;nbsp;jumlah barang&lt;span style=&quot;background-color: initial; text-wrap: nowrap; color: rgba(0, 0, 0, 0); font-family: monospace; font-size: 0px; text-align: start;&quot;&gt;%3CmxGraphModel%3E%3Croot%3E%3CmxCell%20id%3D%220%22%2F%3E%3CmxCell%20id%3D%221%22%20parent%3D%220%22%2F%3E%3CmxCell%20id%3D%222%22%20value%3D%22regist%22%20style%3D%22text%3BstrokeColor%3D%236c8ebf%3Balign%3Dcenter%3BfillColor%3D%23dae8fc%3Bhtml%3D1%3BverticalAlign%3Dmiddle%3BwhiteSpace%3Dwrap%3Brounded%3D0%3B%22%20vertex%3D%221%22%20parent%3D%221%22%3E%3CmxGeometry%20x%3D%22550%22%20y%3D%22190%22%20width%3D%2260%22%20height%3D%2230%22%20as%3D%22geometry%22%2F%3E%3C%2FmxCell%3E%3C%2Froot%3E%3C%2FmxGraphModel%3E&lt;/span&gt;&lt;span style=&quot;background-color: initial; text-wrap: nowrap; color: rgba(0, 0, 0, 0); font-family: monospace; font-size: 0px; text-align: start;&quot;&gt;%3CmxGraphModel%3E%3Croot%3E%3CmxCell%20id%3D%220%22%2F%3E%3CmxCell%20id%3D%221%22%20parent%3D%220%22%2F%3E%3CmxCell%20id%3D%222%22%20value%3D%22regist%22%20style%3D%22text%3BstrokeColor%3D%236c8ebf%3Balign%3Dcenter%3BfillColor%3D%23dae8fc%3Bhtml%3D1%3BverticalAlign%3Dmiddle%3BwhiteSpace%3Dwrap%3Brounded%3D0%3B%22%20vertex%3D%221%22%20parent%3D%221%22%3E%3CmxGeometry%20x%3D%22550%22%20y%3D%22190%22%20width%3D%2260%22%20height%3D%2230%22%20as%3D%22geometry%22%2F%3E%3C%2FmxCell%3E%3C%2Froot%3E%3C%2FmxGraphModel%3E&lt;/span&gt;&lt;span style=&quot;background-color: initial; text-wrap: nowrap; color: rgba(0, 0, 0, 0); font-family: monospace; font-size: 0px; text-align: start;&quot;&gt;%3CmxGraphModel%3E%3Croot%3E%3CmxCell%20id%3D%220%22%2F%3E%3CmxCell%20id%3D%221%22%20parent%3D%220%22%2F%3E%3CmxCell%20id%3D%222%22%20value%3D%22regist%22%20style%3D%22text%3BstrokeColor%3D%236c8ebf%3Balign%3Dcenter%3BfillColor%3D%23dae8fc%3Bhtml%3D1%3BverticalAlign%3Dmiddle%3BwhiteSpace%3Dwrap%3Brounded%3D0%3B%22%20vertex%3D%221%22%20parent%3D%221%22%3E%3CmxGeometry%20x%3D%22550%22%20y%3D%22190%22%20width%3D%2260%22%20height%3D%2230%22%20as%3D%22geometry%22%2F%3E%3C%2FmxCell%3E%3C%2Froot%3E%3C%2FmxGraphModel%3E&lt;/span&gt;&lt;/div&gt;" style="shape=parallelogram;html=1;strokeWidth=2;perimeter=parallelogramPerimeter;whiteSpace=wrap;rounded=1;arcSize=12;size=0.23;" vertex="1" parent="1">
          <mxGeometry x="560" y="1110" width="130" height="60" as="geometry" />
        </mxCell>
        <mxCell id="OFP0CZF55RK4qGKGHeyL-44" value="" style="edgeStyle=orthogonalEdgeStyle;rounded=0;orthogonalLoop=1;jettySize=auto;html=1;" edge="1" parent="1" source="OFP0CZF55RK4qGKGHeyL-39" target="OFP0CZF55RK4qGKGHeyL-43">
          <mxGeometry relative="1" as="geometry" />
        </mxCell>
        <mxCell id="OFP0CZF55RK4qGKGHeyL-39" value="input&lt;div&gt;nama barang&lt;/div&gt;" style="shape=parallelogram;html=1;strokeWidth=2;perimeter=parallelogramPerimeter;whiteSpace=wrap;rounded=1;arcSize=12;size=0.23;" vertex="1" parent="1">
          <mxGeometry x="575" y="900" width="100" height="60" as="geometry" />
        </mxCell>
        <mxCell id="OFP0CZF55RK4qGKGHeyL-43" value="input&lt;div&gt;harga barang&lt;/div&gt;" style="shape=parallelogram;html=1;strokeWidth=2;perimeter=parallelogramPerimeter;whiteSpace=wrap;rounded=1;arcSize=12;size=0.23;" vertex="1" parent="1">
          <mxGeometry x="562.5" y="1010" width="125" height="60" as="geometry" />
        </mxCell>
        <mxCell id="OFP0CZF55RK4qGKGHeyL-53" value="" style="edgeStyle=orthogonalEdgeStyle;rounded=0;orthogonalLoop=1;jettySize=auto;html=1;" edge="1" parent="1" source="OFP0CZF55RK4qGKGHeyL-45" target="OFP0CZF55RK4qGKGHeyL-48">
          <mxGeometry relative="1" as="geometry" />
        </mxCell>
        <mxCell id="OFP0CZF55RK4qGKGHeyL-45" value="proses&lt;div&gt;menentukan total harga&lt;/div&gt;" style="rounded=1;whiteSpace=wrap;html=1;absoluteArcSize=1;arcSize=14;strokeWidth=2;" vertex="1" parent="1">
          <mxGeometry x="575" y="1220" width="100" height="100" as="geometry" />
        </mxCell>
        <mxCell id="OFP0CZF55RK4qGKGHeyL-55" value="" style="edgeStyle=orthogonalEdgeStyle;rounded=0;orthogonalLoop=1;jettySize=auto;html=1;" edge="1" parent="1" source="OFP0CZF55RK4qGKGHeyL-48" target="OFP0CZF55RK4qGKGHeyL-51">
          <mxGeometry relative="1" as="geometry" />
        </mxCell>
        <mxCell id="OFP0CZF55RK4qGKGHeyL-56" value="tidak" style="edgeLabel;html=1;align=center;verticalAlign=middle;resizable=0;points=[];" vertex="1" connectable="0" parent="OFP0CZF55RK4qGKGHeyL-55">
          <mxGeometry x="-0.3243" y="3" relative="1" as="geometry">
            <mxPoint as="offset" />
          </mxGeometry>
        </mxCell>
        <mxCell id="OFP0CZF55RK4qGKGHeyL-60" value="" style="edgeStyle=orthogonalEdgeStyle;rounded=0;orthogonalLoop=1;jettySize=auto;html=1;" edge="1" parent="1" source="OFP0CZF55RK4qGKGHeyL-48" target="OFP0CZF55RK4qGKGHeyL-59">
          <mxGeometry relative="1" as="geometry" />
        </mxCell>
        <mxCell id="OFP0CZF55RK4qGKGHeyL-61" value="iya" style="edgeLabel;html=1;align=center;verticalAlign=middle;resizable=0;points=[];" vertex="1" connectable="0" parent="OFP0CZF55RK4qGKGHeyL-60">
          <mxGeometry x="-0.0846" relative="1" as="geometry">
            <mxPoint as="offset" />
          </mxGeometry>
        </mxCell>
        <mxCell id="OFP0CZF55RK4qGKGHeyL-48" value="apakah&lt;div&gt;total harga &amp;gt;= 250000&lt;/div&gt;" style="strokeWidth=2;html=1;shape=mxgraph.flowchart.decision;whiteSpace=wrap;" vertex="1" parent="1">
          <mxGeometry x="575" y="1370" width="100" height="100" as="geometry" />
        </mxCell>
        <mxCell id="OFP0CZF55RK4qGKGHeyL-49" value="output&lt;div&gt;anda mendapatkan diskon&lt;/div&gt;" style="shape=parallelogram;html=1;strokeWidth=2;perimeter=parallelogramPerimeter;whiteSpace=wrap;rounded=1;arcSize=12;size=0.23;" vertex="1" parent="1">
          <mxGeometry x="355" y="1680" width="230" height="60" as="geometry" />
        </mxCell>
        <mxCell id="OFP0CZF55RK4qGKGHeyL-51" value="output&lt;div&gt;anda tidak mendapatkan&amp;nbsp;&lt;/div&gt;&lt;div&gt;diskon&lt;/div&gt;" style="shape=parallelogram;html=1;strokeWidth=2;perimeter=parallelogramPerimeter;whiteSpace=wrap;rounded=1;arcSize=12;size=0.23;" vertex="1" parent="1">
          <mxGeometry x="730" y="1390" width="200" height="60" as="geometry" />
        </mxCell>
        <mxCell id="OFP0CZF55RK4qGKGHeyL-63" value="" style="edgeStyle=orthogonalEdgeStyle;rounded=0;orthogonalLoop=1;jettySize=auto;html=1;" edge="1" parent="1" source="OFP0CZF55RK4qGKGHeyL-58" target="OFP0CZF55RK4qGKGHeyL-49">
          <mxGeometry relative="1" as="geometry" />
        </mxCell>
        <mxCell id="OFP0CZF55RK4qGKGHeyL-58" value="&lt;div&gt;proses&amp;nbsp;&lt;/div&gt;&lt;div&gt;menghitung total harga setelah diskon&lt;/div&gt;" style="rounded=1;whiteSpace=wrap;html=1;absoluteArcSize=1;arcSize=14;strokeWidth=2;" vertex="1" parent="1">
          <mxGeometry x="420" y="1520" width="100" height="100" as="geometry" />
        </mxCell>
        <mxCell id="OFP0CZF55RK4qGKGHeyL-62" value="" style="edgeStyle=orthogonalEdgeStyle;rounded=0;orthogonalLoop=1;jettySize=auto;html=1;" edge="1" parent="1" source="OFP0CZF55RK4qGKGHeyL-59" target="OFP0CZF55RK4qGKGHeyL-58">
          <mxGeometry relative="1" as="geometry" />
        </mxCell>
        <mxCell id="OFP0CZF55RK4qGKGHeyL-59" value="proses&lt;div&gt;menghitung diskon&lt;/div&gt;" style="rounded=1;whiteSpace=wrap;html=1;absoluteArcSize=1;arcSize=14;strokeWidth=2;" vertex="1" parent="1">
          <mxGeometry x="420" y="1370" width="100" height="100" as="geometry" />
        </mxCell>
        <mxCell id="OFP0CZF55RK4qGKGHeyL-70" value="" style="edgeStyle=orthogonalEdgeStyle;rounded=0;orthogonalLoop=1;jettySize=auto;html=1;" edge="1" parent="1" source="OFP0CZF55RK4qGKGHeyL-64" target="OFP0CZF55RK4qGKGHeyL-69">
          <mxGeometry relative="1" as="geometry" />
        </mxCell>
        <mxCell id="OFP0CZF55RK4qGKGHeyL-64" value="output silahkan pilih menu dibawah ini" style="shape=parallelogram;html=1;strokeWidth=2;perimeter=parallelogramPerimeter;whiteSpace=wrap;rounded=1;arcSize=4;size=0.23;" vertex="1" parent="1">
          <mxGeometry x="460" y="1890" width="320" height="60" as="geometry" />
        </mxCell>
        <mxCell id="OFP0CZF55RK4qGKGHeyL-65" style="edgeStyle=orthogonalEdgeStyle;rounded=0;orthogonalLoop=1;jettySize=auto;html=1;entryX=0.573;entryY=0.01;entryDx=0;entryDy=0;entryPerimeter=0;" edge="1" parent="1" source="OFP0CZF55RK4qGKGHeyL-49" target="OFP0CZF55RK4qGKGHeyL-64">
          <mxGeometry relative="1" as="geometry">
            <Array as="points">
              <mxPoint x="470" y="1820" />
              <mxPoint x="643" y="1820" />
            </Array>
          </mxGeometry>
        </mxCell>
        <mxCell id="OFP0CZF55RK4qGKGHeyL-68" style="edgeStyle=orthogonalEdgeStyle;rounded=0;orthogonalLoop=1;jettySize=auto;html=1;entryX=0.572;entryY=0.031;entryDx=0;entryDy=0;entryPerimeter=0;" edge="1" parent="1" source="OFP0CZF55RK4qGKGHeyL-51" target="OFP0CZF55RK4qGKGHeyL-64">
          <mxGeometry relative="1" as="geometry">
            <mxPoint x="650" y="1870" as="targetPoint" />
            <Array as="points">
              <mxPoint x="830" y="1820" />
              <mxPoint x="643" y="1820" />
            </Array>
          </mxGeometry>
        </mxCell>
        <mxCell id="OFP0CZF55RK4qGKGHeyL-75" style="edgeStyle=orthogonalEdgeStyle;rounded=0;orthogonalLoop=1;jettySize=auto;html=1;entryX=0.5;entryY=0;entryDx=0;entryDy=0;" edge="1" parent="1" source="OFP0CZF55RK4qGKGHeyL-69" target="OFP0CZF55RK4qGKGHeyL-71">
          <mxGeometry relative="1" as="geometry">
            <Array as="points">
              <mxPoint x="450" y="2050" />
            </Array>
          </mxGeometry>
        </mxCell>
        <mxCell id="OFP0CZF55RK4qGKGHeyL-78" value="pilihan 2" style="edgeLabel;html=1;align=center;verticalAlign=middle;resizable=0;points=[];" vertex="1" connectable="0" parent="OFP0CZF55RK4qGKGHeyL-75">
          <mxGeometry x="-0.4276" y="-1" relative="1" as="geometry">
            <mxPoint as="offset" />
          </mxGeometry>
        </mxCell>
        <mxCell id="OFP0CZF55RK4qGKGHeyL-69" value="output&amp;nbsp;&lt;div&gt;1 untuk mengulang&lt;/div&gt;&lt;div&gt;2 untuk berhenti&lt;/div&gt;" style="shape=parallelogram;html=1;strokeWidth=2;perimeter=parallelogramPerimeter;whiteSpace=wrap;rounded=1;arcSize=12;size=0.23;" vertex="1" parent="1">
          <mxGeometry x="530" y="2030" width="180" height="60" as="geometry" />
        </mxCell>
        <mxCell id="OFP0CZF55RK4qGKGHeyL-77" value="" style="edgeStyle=orthogonalEdgeStyle;rounded=0;orthogonalLoop=1;jettySize=auto;html=1;" edge="1" parent="1" source="OFP0CZF55RK4qGKGHeyL-71" target="OFP0CZF55RK4qGKGHeyL-76">
          <mxGeometry relative="1" as="geometry" />
        </mxCell>
        <mxCell id="OFP0CZF55RK4qGKGHeyL-71" value="output&lt;div&gt;program berhenti&lt;/div&gt;" style="shape=parallelogram;html=1;strokeWidth=2;perimeter=parallelogramPerimeter;whiteSpace=wrap;rounded=1;arcSize=12;size=0.23;" vertex="1" parent="1">
          <mxGeometry x="370" y="2110" width="160" height="60" as="geometry" />
        </mxCell>
        <mxCell id="OFP0CZF55RK4qGKGHeyL-80" style="edgeStyle=orthogonalEdgeStyle;rounded=0;orthogonalLoop=1;jettySize=auto;html=1;entryX=1;entryY=0.5;entryDx=0;entryDy=0;" edge="1" parent="1" source="OFP0CZF55RK4qGKGHeyL-72" target="OFP0CZF55RK4qGKGHeyL-10">
          <mxGeometry relative="1" as="geometry">
            <mxPoint x="1130" y="420" as="targetPoint" />
            <Array as="points">
              <mxPoint x="990" y="2140" />
              <mxPoint x="990" y="410" />
            </Array>
          </mxGeometry>
        </mxCell>
        <mxCell id="OFP0CZF55RK4qGKGHeyL-72" value="output program diulang" style="shape=parallelogram;html=1;strokeWidth=2;perimeter=parallelogramPerimeter;whiteSpace=wrap;rounded=1;arcSize=12;size=0.23;" vertex="1" parent="1">
          <mxGeometry x="675" y="2110" width="210" height="60" as="geometry" />
        </mxCell>
        <mxCell id="OFP0CZF55RK4qGKGHeyL-74" style="edgeStyle=orthogonalEdgeStyle;rounded=0;orthogonalLoop=1;jettySize=auto;html=1;entryX=0.627;entryY=0.036;entryDx=0;entryDy=0;entryPerimeter=0;" edge="1" parent="1" source="OFP0CZF55RK4qGKGHeyL-69" target="OFP0CZF55RK4qGKGHeyL-72">
          <mxGeometry relative="1" as="geometry">
            <Array as="points">
              <mxPoint x="807" y="2050" />
            </Array>
          </mxGeometry>
        </mxCell>
        <mxCell id="OFP0CZF55RK4qGKGHeyL-79" value="pilihan 1" style="edgeLabel;html=1;align=center;verticalAlign=middle;resizable=0;points=[];" vertex="1" connectable="0" parent="OFP0CZF55RK4qGKGHeyL-74">
          <mxGeometry x="-0.4358" y="1" relative="1" as="geometry">
            <mxPoint as="offset" />
          </mxGeometry>
        </mxCell>
        <mxCell id="OFP0CZF55RK4qGKGHeyL-76" value="selesai" style="strokeWidth=2;html=1;shape=mxgraph.flowchart.terminator;whiteSpace=wrap;" vertex="1" parent="1">
          <mxGeometry x="400" y="2230" width="100" height="60" as="geometry" />
        </mxCell>
      </root>
    </mxGraphModel>
  </diagram>
</mxfile>
